<svg width="240" height="67" viewBox="0 0 240 67" fill="none" xmlns="http://www.w3.org/2000/svg">
<path opacity="0.3" d="M218.187 64.9382C217.108 66.8193 214.69 67.44 212.847 66.3705L167.276 40.0827C169.579 11.5414 155.716 -17.0858 129.291 -32.3352C102.857 -47.5846 71.0816 -45.2929 47.5131 -29.0409L1.98102 -55.3096C0.0989838 -56.3982 -0.560242 -58.7949 0.519302 -60.676C0.7677 -61.0961 1.10207 -61.4781 1.45555 -61.7646C1.52243 -61.8123 1.57037 -61.8505 1.63725 -61.8887L174.346 -186.09C174.355 -186.118 174.374 -186.147 174.374 -186.147C175.626 -187.054 177.336 -187.178 178.721 -186.376L238.049 -152.134C239.338 -151.399 240.045 -149.995 239.998 -148.582L239.95 -147.971L218.693 63.143L218.646 63.7542C218.56 64.1648 218.407 64.5658 218.187 64.9382Z" fill="#2C83FD"/>
</svg>
