<svg width="178" height="278" viewBox="0 0 178 278" fill="none" xmlns="http://www.w3.org/2000/svg">
<path opacity="0.3" d="M238.642 275.549C237.461 277.606 234.818 278.285 232.801 277.116L182.958 248.363C185.477 217.146 170.315 185.835 141.412 169.156C112.5 152.477 77.7455 154.984 51.9674 172.759L2.16675 144.028C0.108246 142.837 -0.612762 140.216 0.567993 138.158C0.839661 137.699 1.20538 137.281 1.59201 136.968C1.66516 136.916 1.71759 136.874 1.79074 136.832L190.691 0.987244C190.701 0.955902 190.722 0.9245 190.722 0.9245C192.091 -0.067688 193.961 -0.20343 195.476 0.673859L260.366 38.126C261.776 38.9301 262.55 40.4655 262.498 42.0112L262.445 42.6795L239.196 273.585L239.144 274.254C239.05 274.703 238.882 275.142 238.642 275.549Z" fill="#2C83FD"/>
</svg>
