<svg width="240" height="178" viewBox="0 0 240 178" fill="none" xmlns="http://www.w3.org/2000/svg">
<path opacity="0.3" d="M218.187 251.938C217.108 253.819 214.69 254.44 212.847 253.371L167.276 227.083C169.579 198.541 155.716 169.914 129.291 154.665C102.857 139.415 71.0816 141.707 47.5131 157.959L1.98102 131.69C0.0989838 130.602 -0.560242 128.205 0.519302 126.324C0.7677 125.904 1.10207 125.522 1.45555 125.235C1.52243 125.188 1.57037 125.149 1.63725 125.111L174.346 0.910385C174.355 0.881744 174.374 0.853012 174.374 0.853012C175.626 -0.0541229 177.336 -0.178238 178.721 0.623856L238.049 34.8658C239.338 35.601 240.045 37.0048 239.998 38.418L239.95 39.029L218.693 250.143L218.646 250.754C218.56 251.165 218.407 251.566 218.187 251.938Z" fill="#2C83FD"/>
</svg>
