<svg width="237" height="210" viewBox="0 0 237 210" fill="none" xmlns="http://www.w3.org/2000/svg">
<path opacity="0.3" d="M214.918 248.166C213.855 250.019 211.474 250.63 209.658 249.577L164.77 223.683C167.038 195.569 153.383 167.37 127.354 152.349C101.315 137.329 70.0163 139.586 46.8008 155.594L1.95082 129.719C0.0969696 128.647 -0.552383 126.286 0.511002 124.433C0.755661 124.019 1.08504 123.643 1.43321 123.361C1.49908 123.314 1.54633 123.276 1.6122 123.239L171.734 0.89827C171.743 0.870056 171.762 0.841766 171.762 0.841766C172.995 -0.0517883 174.679 -0.174042 176.044 0.616043L234.482 34.345C235.753 35.0693 236.449 36.452 236.402 37.844L236.355 38.4459L215.417 246.397L215.37 246.999C215.285 247.404 215.135 247.799 214.918 248.166Z" fill="#2C83FD"/>
</svg>
